<?xml version="1.0" encoding="utf-8"?>
<!-- Generator: Adobe Illustrator 23.0.6, SVG Export Plug-In . SVG Version: 6.00 Build 0)  -->
<svg version="1.1" id="Layer_1" xmlns="http://www.w3.org/2000/svg" xmlns:xlink="http://www.w3.org/1999/xlink" x="0px" y="0px"
	 viewBox="0 0 22.1 22.1" style="enable-background:new 0 0 22.1 22.1;" xml:space="preserve">
<style type="text/css">
	.st0{fill:#FFFFFF;}
</style>
<title>arrivals</title>
<g id="rect2830">
	<rect x="3.4" y="14.9" class="st0" width="15.4" height="1.2"/>
</g>
<g id="path3604">
	<path class="st0" d="M4.6,5.3l0.2,3.3l12.9,3.9c0.6,0.2,1.2-0.1,1.4-0.7c0.2-0.6-0.1-1.2-0.7-1.4c0,0-0.1,0-0.1,0l-4.7-1.4L9.6,2.8
		L7.9,2.5l2.4,5.6L6.7,7.1L6,5.7L4.6,5.3z"/>
</g>
<path class="st0" d="M11.1,22.1C4.9,22.1,0,17.2,0,11.1S4.9,0,11.1,0s11.1,4.9,11.1,11.1C22.1,17.2,17.2,22.1,11.1,22.1z M11.1,1
	C5.5,1,1,5.5,1,11.1s4.5,10.1,10.1,10.1s10.1-4.5,10.1-10.1l0,0C21.1,5.5,16.6,1,11.1,1z"/>
</svg>
