<?xml version="1.0" encoding="utf-8"?>
<!-- Generator: Adobe Illustrator 23.0.6, SVG Export Plug-In . SVG Version: 6.00 Build 0)  -->
<svg version="1.1" id="Layer_1" xmlns="http://www.w3.org/2000/svg" xmlns:xlink="http://www.w3.org/1999/xlink" x="0px" y="0px"
	 viewBox="0 0 22.1 22.1" style="enable-background:new 0 0 22.1 22.1;" xml:space="preserve">
<style type="text/css">
	.st0{fill:#FFFFFF;}
</style>
<title>departures</title>
<g id="rect2830">
	<rect x="3.4" y="14.9" class="st0" width="15.4" height="1.2"/>
</g>
<g id="path3604">
	<path class="st0" d="M4,11.6l2.6,2.1l11.5-7c0.5-0.3,0.7-0.9,0.4-1.5c-0.3-0.5-0.9-0.7-1.5-0.4c-0.1,0-0.1,0.1-0.2,0.1l-4.2,2.6
		L5.4,6.2L4.1,7.3l5.8,1.9l-3.2,2l-1.5-0.4L4,11.6z"/>
</g>
<path class="st0" d="M11.1,22.1C4.9,22.1,0,17.2,0,11.1S4.9,0,11.1,0s11.1,4.9,11.1,11.1c0,0,0,0,0,0C22.1,17.2,17.2,22.1,11.1,22.1
	z M11.1,1C5.5,1,1,5.5,1,11.1s4.5,10.1,10.1,10.1s10.1-4.5,10.1-10.1c0,0,0,0,0,0C21.1,5.5,16.6,1,11.1,1z"/>
</svg>
